<?xml version="1.0" standalone="no"?>
<!DOCTYPE svg PUBLIC "-//W3C//DTD SVG 20010904//EN"
 "http://www.w3.org/TR/2001/REC-SVG-20010904/DTD/svg10.dtd">
<svg version="1.0" xmlns="http://www.w3.org/2000/svg"
 width="3000.000000pt" height="3000.000000pt" viewBox="0 0 3000.000000 3000.000000"
 preserveAspectRatio="xMidYMid meet">
<metadata>
Created by potrace 1.14, written by Peter Selinger 2001-2017
</metadata>
<g transform="translate(0.000000,3000.000000) scale(0.100000,-0.100000)"
fill="#000000" stroke="none">
<path d="M0 15000 l0 -15000 15000 0 15000 0 0 15000 0 15000 -15000 0 -15000
0 0 -15000z m15352 8081 c159 -56 299 -192 358 -347 45 -122 47 -282 4 -410
-38 -116 -139 -236 -256 -307 -95 -57 -154 -72 -288 -72 -98 1 -126 4 -187 27
-159 57 -299 197 -353 352 -48 134 -45 303 6 430 65 162 229 303 398 342 84
19 243 12 318 -15z m-7604 -1390 c188 -40 353 -110 514 -217 107 -71 260 -210
328 -299 l43 -56 -24 -27 c-13 -15 -138 -143 -278 -284 l-255 -257 -75 68
c-104 92 -172 142 -261 189 -117 62 -171 76 -285 77 -119 0 -182 -18 -245 -72
-51 -44 -70 -85 -70 -150 0 -63 31 -117 95 -166 28 -20 198 -112 380 -204 457
-230 602 -319 762 -468 226 -209 334 -484 320 -815 -16 -354 -183 -646 -485
-848 -200 -133 -434 -198 -747 -209 -393 -13 -721 85 -1008 301 -72 54 -244
224 -284 282 l-22 30 276 302 276 301 92 -88 c185 -177 429 -301 620 -318 143
-12 279 33 362 119 104 107 98 229 -20 354 -83 90 -182 151 -482 302 -357 180
-537 300 -697 465 -264 273 -359 640 -251 981 120 382 483 665 928 725 111 15
385 5 493 -18z m10822 19 c195 -24 367 -87 530 -194 234 -153 382 -349 455
-603 62 -213 59 -135 62 -1565 l4 -1308 -446 0 -445 0 0 908 c0 1078 -10 1325
-61 1512 -87 320 -360 483 -697 414 -338 -68 -578 -390 -623 -837 -7 -70 -13
-465 -16 -1054 l-5 -943 -444 0 -444 0 0 1795 0 1795 445 0 445 0 0 -180 c0
-99 3 -180 8 -180 4 0 39 25 77 56 329 265 639 390 970 393 55 1 139 -4 185
-9z m3725 -15 c264 -47 515 -171 755 -373 l95 -79 3 193 2 194 450 0 450 0 0
-1578 c0 -1795 -3 -1874 -70 -2186 -101 -466 -351 -797 -760 -1010 -259 -134
-552 -201 -935 -212 -481 -15 -862 56 -1175 217 -286 148 -502 359 -652 636
-45 84 -118 252 -118 273 0 7 174 10 496 10 l496 0 76 -71 c179 -167 470 -250
832 -236 247 9 435 60 582 156 168 110 254 234 292 426 27 135 47 425 29 425
-4 0 -30 -22 -58 -49 -141 -139 -372 -275 -550 -326 -267 -76 -580 -85 -864
-23 -402 86 -777 349 -1023 717 -151 227 -237 450 -285 746 -25 154 -25 524 0
684 73 468 274 838 607 1115 246 205 513 322 835 365 100 14 383 6 490 -14z
m-12394 -102 c8 -21 170 -478 359 -1015 190 -538 347 -978 350 -978 3 0 178
457 390 1015 l385 1014 271 1 271 0 15 -37 c8 -21 178 -471 378 -1000 200
-530 367 -963 370 -963 3 0 134 357 290 793 155 435 317 885 358 1000 l74 207
444 0 c244 0 444 -1 444 -2 0 -2 -294 -808 -654 -1793 l-653 -1790 -288 0
-288 0 -381 1017 c-325 868 -383 1014 -392 995 -6 -12 -183 -471 -395 -1020
l-384 -997 -284 2 -284 3 -643 1785 c-354 982 -644 1788 -644 1793 0 4 197 7
438 7 l439 0 14 -37z m5719 -1758 l0 -1795 -450 0 -450 0 0 1795 0 1795 450 0
450 0 0 -1795z m-6370 -3785 c368 -31 726 -132 1049 -294 273 -138 567 -354
892 -658 139 -130 346 -345 338 -352 -10 -8 -1196 -981 -1210 -993 -14 -12
-23 -5 -75 59 -423 525 -868 786 -1309 765 -197 -10 -349 -61 -482 -161 -157
-119 -227 -268 -203 -435 19 -132 77 -243 192 -367 167 -178 647 -580 1333
-1114 679 -529 951 -756 1140 -951 464 -479 684 -887 750 -1392 19 -150 20
-475 1 -617 -73 -542 -327 -1001 -751 -1357 -494 -414 -1131 -623 -1901 -623
-531 0 -989 99 -1409 305 -467 229 -860 594 -1199 1112 -76 118 -195 316 -199
334 -2 6 886 510 1319 750 l72 39 67 -108 c132 -213 316 -439 470 -578 374
-336 798 -454 1237 -343 189 47 354 144 491 289 94 99 155 205 176 308 17 84
13 209 -9 298 -82 319 -336 584 -1185 1234 -688 527 -1092 867 -1430 1205
-205 205 -316 336 -436 514 -100 150 -222 388 -269 529 -202 601 -80 1252 325
1738 235 281 555 521 887 663 392 168 869 240 1328 201z m7990 -950 l0 -760
-795 0 -795 0 0 -3290 0 -3290 -845 0 -845 0 0 3290 0 3290 -770 0 -770 0 0
760 0 760 2410 0 2410 0 0 -760z m3795 741 c683 -51 1043 -118 1356 -253 376
-162 688 -427 921 -783 167 -254 266 -510 325 -835 25 -135 27 -165 27 -450 1
-328 -6 -406 -61 -630 -88 -363 -287 -706 -552 -952 -97 -89 -241 -198 -361
-273 -120 -74 -385 -202 -515 -249 -55 -20 -112 -42 -126 -49 l-27 -12 1025
-1785 c564 -982 1027 -1791 1030 -1797 4 -10 -180 -13 -903 -13 l-909 1 -980
1712 -980 1712 -78 3 -77 3 0 -1716 0 -1715 -830 0 -830 0 0 4051 0 4051 1198
-5 c748 -3 1253 -9 1347 -16z"/>
<path d="M22056 20869 c-229 -33 -436 -146 -583 -318 -162 -190 -233 -390
-234 -662 0 -75 5 -165 11 -200 77 -436 404 -752 836 -810 105 -14 290 -6 382
16 280 67 501 244 623 500 82 171 116 379 98 592 -13 148 -41 251 -104 378
-136 274 -378 450 -690 500 -97 16 -245 18 -339 4z"/>
<path d="M20150 13525 l0 -835 353 0 c442 0 669 15 877 56 473 94 682 332 683
774 0 154 -17 231 -80 360 -39 81 -59 108 -142 191 -88 88 -107 102 -211 152
-63 30 -144 63 -180 71 -191 46 -478 66 -957 66 l-343 0 0 -835z"/>
</g>
</svg>
